<svg width="149" height="41" viewBox="0 0 149 41" fill="none" xmlns="http://www.w3.org/2000/svg">
<g clip-path="url(#clip0_1225_6218)">
<path d="M59.2654 16.1133H61.2907V25.47H59.2654V24.1225C58.496 25.1894 57.4083 25.7133 55.9832 25.7133C54.689 25.7133 53.601 25.2455 52.682 24.291C51.7629 23.3367 51.3129 22.1578 51.3129 20.7919C51.3129 19.4068 51.7629 18.2467 52.682 17.2923C53.601 16.3378 54.689 15.8701 55.9832 15.8701C57.4083 15.8701 58.496 16.394 59.2654 17.4421V16.1133ZM56.302 23.7859C57.1459 23.7859 57.8583 23.5053 58.4214 22.9437C58.984 22.3635 59.2654 21.6526 59.2654 20.7919C59.2654 19.9308 58.984 19.2199 58.4214 18.6584C57.8583 18.0783 57.1459 17.7976 56.302 17.7976C55.4576 17.7976 54.745 18.0783 54.1823 18.6584C53.6198 19.2199 53.3384 19.9308 53.3384 20.7919C53.3384 21.6526 53.6198 22.3635 54.1823 22.9437C54.745 23.5053 55.4576 23.7859 56.302 23.7859Z" fill="white"/>
<path d="M67.0682 19.9123C68.5124 20.2304 70.3879 20.8293 70.3504 22.8315C70.3504 23.7297 69.994 24.4407 69.3001 24.9461C68.6063 25.4512 67.7435 25.7133 66.6932 25.7133C64.8361 25.7133 63.4671 24.8899 62.867 23.5237L64.6114 22.5133C64.9303 23.4117 65.6241 23.8606 66.6932 23.8606C67.762 23.8606 68.2875 23.5053 68.2875 22.8128C68.2875 22.2139 67.4997 21.8583 66.5055 21.6151C65.0989 21.2594 63.2045 20.6982 63.242 18.7331C63.242 17.8724 63.5608 17.1802 64.2175 16.656C64.8737 16.1321 65.6991 15.8701 66.6742 15.8701C68.231 15.8701 69.4878 16.6001 70.1441 17.8164L68.4373 18.7706C68.1183 18.0597 67.5183 17.7041 66.6742 17.7041C65.9054 17.7041 65.3053 18.041 65.3053 18.696C65.3053 19.3135 66.093 19.6317 67.0682 19.9123Z" fill="white"/>
<path d="M77.2809 18.0582H74.9554V22.5494C74.9554 23.7472 75.7432 23.7284 77.2809 23.6535V25.4687C74.1865 25.8431 72.9301 25.001 72.9301 22.5494V18.0582H71.2042V16.112H72.9301V14.0911L74.9554 13.4922V16.112H77.2809V18.0582Z" fill="white"/>
<path d="M86.1222 16.1133H88.148V25.47H86.1222V24.1225C85.3534 25.1894 84.2657 25.7133 82.8401 25.7133C81.5461 25.7133 80.4584 25.2455 79.5394 24.291C78.6204 23.3367 78.1699 22.1578 78.1699 20.7919C78.1699 19.4068 78.6204 18.2467 79.5394 17.2923C80.4584 16.3378 81.5461 15.8701 82.8401 15.8701C84.2657 15.8701 85.3534 16.394 86.1222 17.4421V16.1133ZM83.159 23.7859C84.0029 23.7859 84.7157 23.5053 85.2783 22.9437C85.8409 22.3635 86.1222 21.6526 86.1222 20.7919C86.1222 19.9308 85.8409 19.2199 85.2783 18.6584C84.7157 18.0783 84.0029 17.7976 83.159 17.7976C82.3149 17.7976 81.6022 18.0783 81.0395 18.6584C80.4769 19.2199 80.1956 19.9308 80.1956 20.7919C80.1956 21.6526 80.4769 22.3635 81.0395 22.9437C81.6022 23.5053 82.3149 23.7859 83.159 23.7859Z" fill="white"/>
<path d="M98.9088 19.7251V25.47H96.883V19.9308C96.883 18.5274 96.0766 17.7603 94.7827 17.7603C93.3571 17.7603 92.4005 18.6398 92.4005 20.4549V25.47H90.3752V16.1133H92.4005V17.3109C93.0197 16.3566 93.9762 15.8701 95.3077 15.8701C97.4647 15.8701 98.9088 17.3297 98.9088 19.7251Z" fill="white"/>
<path d="M108.418 16.1133H110.444V25.47H108.418V24.1225C107.649 25.1894 106.561 25.7133 105.136 25.7133C103.842 25.7133 102.754 25.2455 101.835 24.291C100.916 23.3367 100.465 22.1578 100.465 20.7919C100.465 19.4068 100.916 18.2467 101.835 17.2923C102.754 16.3378 103.842 15.8701 105.136 15.8701C106.561 15.8701 107.649 16.394 108.418 17.4421V16.1133ZM105.454 23.7859C106.299 23.7859 107.012 23.5053 107.574 22.9437C108.137 22.3635 108.418 21.6526 108.418 20.7919C108.418 19.9308 108.137 19.2199 107.574 18.6584C107.012 18.0783 106.299 17.7976 105.454 17.7976C104.61 17.7976 103.898 18.0783 103.336 18.6584C102.772 19.2199 102.491 19.9308 102.491 20.7919C102.491 21.6526 102.772 22.3635 103.336 22.9437C103.898 23.5053 104.61 23.7859 105.454 23.7859Z" fill="white"/>
<path d="M126.031 19.7245V25.4694H124.006V19.9302C124.006 18.5268 123.2 17.7597 121.906 17.7597C120.479 17.7597 119.523 18.6391 119.523 20.4544V25.4694H117.498V12.3701H119.523V17.3104C120.142 16.356 121.098 15.8695 122.43 15.8695C124.587 15.8695 126.031 17.3291 126.031 19.7245Z" fill="white"/>
<path d="M134.478 16.1123H136.504V25.469H134.478V24.2714C133.86 25.2258 132.904 25.7122 131.572 25.7122C129.415 25.7122 127.971 24.2527 127.971 21.8573V16.1123H129.996V21.6516C129.996 23.055 130.803 23.8224 132.097 23.8224C133.522 23.8224 134.478 22.9426 134.478 21.1274V16.1123Z" fill="white"/>
<path d="M147.331 17.2917C148.25 18.2461 148.7 19.4063 148.7 20.7912C148.7 22.1572 148.25 23.3362 147.331 24.2905C146.412 25.245 145.324 25.7127 144.03 25.7127C142.605 25.7127 141.517 25.1888 140.748 24.1219V25.4694H138.722V12.3701H140.748V17.4415C141.517 16.3934 142.605 15.8695 144.03 15.8695C145.324 15.8695 146.412 16.3373 147.331 17.2917ZM143.712 23.7853C144.555 23.7853 145.268 23.5047 145.83 22.943C146.393 22.3629 146.675 21.652 146.675 20.7912C146.675 19.9302 146.393 19.2192 145.83 18.6579C145.268 18.0778 144.555 17.7971 143.712 17.7971C142.867 17.7971 142.154 18.0778 141.592 18.6579C141.029 19.2192 140.748 19.9302 140.748 20.7912C140.748 21.652 141.029 22.3629 141.592 22.943C142.154 23.5047 142.867 23.7853 143.712 23.7853Z" fill="white"/>
<path opacity="0.1" d="M38.5008 26.2963C38.4709 26.3995 38.4403 26.5023 38.4088 26.6049L38.3783 26.7028C38.3396 26.8261 38.2996 26.9488 38.2585 27.071L38.2304 27.1545C38.1873 27.2807 38.1429 27.4063 38.0973 27.5313L38.0653 27.6186C38.02 27.7416 37.9732 27.864 37.9255 27.9858L37.8892 28.0774C37.8409 28.1989 37.7915 28.32 37.7407 28.4403L37.7021 28.5306C37.6529 28.646 37.6025 28.7609 37.5511 28.875L37.5078 28.9704C37.4566 29.0825 37.4043 29.1941 37.351 29.3052L37.3031 29.4046C37.2501 29.5137 37.196 29.6222 37.141 29.7301L37.089 29.8318C37.0328 29.9404 36.9755 30.0485 36.9176 30.1559L36.8664 30.2501C36.8062 30.3603 36.7448 30.4696 36.6824 30.5784L36.6262 30.6761C36.5641 30.783 36.5011 30.8893 36.4371 30.995L36.3788 31.0905C36.3163 31.1926 36.2528 31.294 36.1884 31.3948L36.1223 31.4976C36.0595 31.5946 35.9959 31.6911 35.9313 31.7871L35.8576 31.8961C35.7932 31.9905 35.728 32.0843 35.6619 32.1775L35.5844 32.2864C35.5178 32.3791 35.4505 32.4712 35.3823 32.5628L35.3038 32.6679C35.2346 32.7597 35.1644 32.8508 35.0936 32.9414L35.0108 33.0466C34.9382 33.1383 34.8646 33.2293 34.7903 33.3198L34.7066 33.4209C34.6366 33.5049 34.5658 33.5883 34.4945 33.671C34.4608 33.7101 34.4271 33.7491 34.3931 33.7878C34.3244 33.8664 34.2549 33.9445 34.1848 34.0221L34.0702 34.148C34.0014 34.2228 33.932 34.2971 33.8621 34.3709C33.8225 34.4127 33.7828 34.4543 33.7428 34.4958C33.6722 34.569 33.601 34.6418 33.5293 34.7139C33.4903 34.7532 33.4511 34.7922 33.4118 34.8311C33.3363 34.9059 33.2602 34.9801 33.1834 35.0536L33.0826 35.1498C32.9999 35.2279 32.9165 35.3052 32.8326 35.3819C32.7924 35.4187 32.7516 35.4553 32.711 35.4918C32.6359 35.5592 32.5603 35.6263 32.4841 35.6927C32.443 35.7286 32.4016 35.7643 32.3601 35.7998C32.2836 35.8653 32.2065 35.9304 32.129 35.9947C32.0868 36.0298 32.0444 36.065 32.0019 36.0997C31.9217 36.1652 31.8411 36.2298 31.7598 36.2941C31.7203 36.3255 31.6806 36.3569 31.6407 36.388C31.5576 36.4527 31.4738 36.5167 31.3896 36.5802C31.3398 36.6176 31.2899 36.6549 31.2398 36.6921C31.161 36.7503 31.0817 36.808 31.002 36.8651C30.9527 36.9004 30.9032 36.9355 30.8536 36.9704C30.7722 37.0278 30.6902 37.0844 30.6077 37.1405C30.5565 37.1754 30.505 37.21 30.4534 37.2445C30.3662 37.3027 30.2786 37.3604 30.1904 37.4172C30.1467 37.4454 30.1028 37.4732 30.0588 37.5011C29.9651 37.5605 29.8709 37.6193 29.7761 37.6772C29.7357 37.702 29.6948 37.7264 29.6541 37.7508C29.5606 37.807 29.4666 37.8625 29.3721 37.9172L29.249 37.9877C29.1525 38.0426 29.0555 38.0968 28.9579 38.1501L28.8399 38.2141C28.7387 38.2685 28.6369 38.322 28.5348 38.3747L28.4251 38.431C28.3165 38.4862 28.2074 38.5403 28.0977 38.5934L28.0079 38.637C27.892 38.6925 27.7753 38.7466 27.6581 38.8L27.563 38.843C27.4412 38.8977 27.3187 38.9511 27.1955 39.0035L27.1163 39.0368C26.9912 39.0892 26.8654 39.1406 26.7391 39.1905L26.6625 39.2204C26.5388 39.2687 26.4145 39.3159 26.2897 39.3617L26.212 39.3899C26.087 39.4352 25.9614 39.4793 25.8353 39.5223L25.7591 39.5479C25.6317 39.5906 25.5034 39.6322 25.3748 39.6724L25.3005 39.6954C25.1708 39.7355 25.0404 39.7741 24.9096 39.8116L24.8374 39.8322C24.7029 39.87 24.5679 39.9065 24.4324 39.9416L24.3713 39.9575C24.2266 39.9944 24.0815 40.0297 23.9357 40.0635L23.9074 40.0701C23.7516 40.1059 23.5951 40.1401 23.4378 40.1722L23.423 40.1751C23.2692 40.2064 23.1148 40.236 22.9598 40.2637L22.9215 40.2703C22.773 40.2966 22.6239 40.3212 22.4745 40.3443L22.4267 40.3513C22.2798 40.3736 22.1325 40.3942 21.9845 40.4131L21.9324 40.4197C21.7849 40.4382 21.6369 40.455 21.4886 40.4703L21.4374 40.4755C21.287 40.4905 21.1361 40.5038 20.9847 40.5156L20.9407 40.5189C20.7855 40.5306 20.6297 40.5404 20.4734 40.5485L20.4422 40.5501C20.28 40.5583 20.1172 40.5644 19.9541 40.5687L19.9408 40.5691C19.7718 40.5734 19.6025 40.5755 19.4325 40.5755C19.2626 40.5755 19.0933 40.5734 18.9243 40.5691L18.9108 40.5687C18.7477 40.5645 18.5852 40.5582 18.4231 40.5501L18.3913 40.5485C18.2352 40.5405 18.0797 40.5306 17.9245 40.5189L17.8802 40.5156C17.7289 40.5039 17.5782 40.4904 17.4279 40.4755L17.3763 40.4702C17.2279 40.455 17.0801 40.4381 16.9328 40.4197L16.8806 40.4131C16.7327 40.3941 16.5853 40.3736 16.4384 40.3513L16.3907 40.3443C16.2416 40.3214 16.0931 40.2968 15.9452 40.2706L15.9046 40.2636C15.7505 40.236 15.597 40.2066 15.4441 40.1755L15.4265 40.172C15.2698 40.1399 15.1139 40.106 14.9587 40.0703L14.9277 40.063C14.7825 40.0295 14.6379 39.9942 14.4938 39.9575L14.4327 39.9416C14.2971 39.9065 14.1621 39.87 14.0278 39.8322L13.9555 39.8116C13.825 39.7743 13.6951 39.7358 13.5657 39.6959L13.4898 39.6722C13.3619 39.6322 13.2346 39.591 13.1079 39.5486L13.0282 39.5217C12.9029 39.4791 12.7785 39.4352 12.6544 39.3903L12.5752 39.3616C12.4514 39.3162 12.3282 39.2693 12.2055 39.2215L12.1244 39.1898C11.9998 39.1406 11.8758 39.0899 11.7525 39.0382L11.6651 39.0015C11.5437 38.9499 11.4229 38.8972 11.3026 38.8432L11.2056 38.7994C11.0895 38.7465 10.9741 38.6928 10.8591 38.6378L10.7641 38.5917C10.6556 38.539 10.5476 38.4858 10.4403 38.4312C10.4029 38.4123 10.3657 38.3929 10.3284 38.3737C10.227 38.3213 10.1259 38.2683 10.0256 38.2143L9.90516 38.1489C9.80829 38.0959 9.71201 38.0421 9.61616 37.9877L9.49306 37.9172C9.39854 37.8625 9.30454 37.807 9.21106 37.7508L9.08899 37.6772C8.99469 37.6197 8.90106 37.5612 8.80786 37.5021C8.76108 37.4725 8.71446 37.4428 8.66796 37.4128C8.58207 37.3574 8.49669 37.3012 8.41175 37.2445C8.35936 37.2096 8.30729 37.1744 8.25527 37.139C8.17431 37.0839 8.09364 37.0283 8.01356 36.9719C7.96325 36.9365 7.91316 36.9009 7.86313 36.8651C7.78342 36.808 7.70415 36.7502 7.62533 36.6921C7.57428 36.6543 7.52359 36.6164 7.47299 36.5782C7.39054 36.516 7.3084 36.4534 7.227 36.3899C7.18589 36.3579 7.14493 36.3255 7.10412 36.2932C7.02331 36.2293 6.943 36.1648 6.86322 36.0997C6.82071 36.0649 6.77836 36.0298 6.73615 35.9947C6.65857 35.9304 6.58152 35.8653 6.50497 35.7998C6.4635 35.7643 6.42217 35.7286 6.38098 35.6927C6.30481 35.6263 6.22923 35.5593 6.15409 35.4918C6.1135 35.4553 6.07283 35.4187 6.03246 35.3819C5.94848 35.3052 5.86516 35.2279 5.7825 35.1498L5.68165 35.0536C5.60547 34.9807 5.52996 34.9069 5.45497 34.8328C5.41511 34.7933 5.3754 34.7538 5.33584 34.7139C5.26409 34.6418 5.19292 34.569 5.12228 34.4958C5.08235 34.4543 5.04257 34.4127 5.003 34.3709C4.9331 34.2971 4.86377 34.2228 4.79497 34.148L4.68026 34.0221C4.61116 33.9455 4.54258 33.8685 4.47465 33.7908L4.36924 33.6695C4.29851 33.5873 4.22845 33.5048 4.15912 33.4215L4.07205 33.3164C3.99875 33.2271 3.92626 33.1373 3.85451 33.0468C3.82578 33.0106 3.79727 32.9742 3.76883 32.9379C3.7012 32.8513 3.63423 32.7643 3.56801 32.6766C3.53832 32.6373 3.50885 32.5978 3.47946 32.5584C3.41381 32.4701 3.34892 32.3812 3.28468 32.2919L3.1993 32.172C3.13608 32.0826 3.07355 31.9927 3.01181 31.9022L2.92937 31.7804C2.86763 31.6885 2.80664 31.596 2.74638 31.503L2.67249 31.3881C2.61061 31.291 2.54961 31.1935 2.48942 31.0955L2.42555 30.9909C2.3633 30.8882 2.30215 30.7847 2.24175 30.6807L2.18009 30.5738C2.11946 30.468 2.05978 30.3614 2.00107 30.2542L1.94478 30.1506C1.88909 30.0475 1.83421 29.9438 1.78028 29.8396L1.72113 29.7241C1.66809 29.6199 1.61593 29.5151 1.56465 29.4099L1.51066 29.298C1.45968 29.1916 1.40966 29.0847 1.36051 28.9772L1.31079 28.8677C1.26084 28.7566 1.21192 28.645 1.16396 28.5329L1.12272 28.436C1.07262 28.317 1.0237 28.1974 0.97589 28.0774L0.939645 27.9858C0.891907 27.8643 0.845349 27.7421 0.799969 27.6193L0.766375 27.5273C0.721363 27.4036 0.677383 27.2794 0.634729 27.1545L0.60666 27.071C0.565553 26.9488 0.525625 26.8261 0.486801 26.7028L0.456376 26.6049C0.424699 26.5024 0.394273 26.3993 0.36429 26.2963C0.133558 25.4254 0.584045 24.5048 1.428 24.1721C5.72268 22.4792 12.1939 21.4017 19.4325 21.4017C26.6714 21.4017 33.1424 22.4792 37.4371 24.1721C38.2811 24.5048 38.7316 25.4254 38.5008 26.2963ZM0.364216 15.2377C0.394494 15.1337 0.425067 15.0297 0.457039 14.9263L0.485918 14.8336C0.525257 14.7086 0.565701 14.5842 0.607397 14.4603L0.63414 14.3808C0.677383 14.254 0.722026 14.1279 0.767775 14.0022L0.798716 13.9176C0.84476 13.793 0.892055 13.669 0.940455 13.5456L0.974932 13.4585C1.02348 13.3365 1.07321 13.2148 1.12418 13.094L1.16183 13.0056C1.21111 12.8904 1.26128 12.7757 1.31263 12.6616L1.35905 12.5595C1.40862 12.451 1.45916 12.343 1.51066 12.2356L1.56407 12.1249C1.61593 12.0182 1.66882 11.9121 1.7226 11.8064L1.77786 11.6986C1.83296 11.5922 1.88895 11.4862 1.94589 11.3809L2.00099 11.2795C2.05971 11.1723 2.11938 11.0657 2.18009 10.9597L2.24175 10.8529C2.30259 10.748 2.36433 10.6437 2.42702 10.5401L2.4875 10.4411C2.5485 10.3417 2.61038 10.2428 2.67307 10.1445L2.74638 10.0306C2.807 9.93693 2.86837 9.84387 2.93055 9.7514L3.01181 9.63137C3.07406 9.54022 3.13712 9.44951 3.20084 9.3594L3.28358 9.24327C3.3484 9.15307 3.41381 9.0634 3.48012 8.97431L3.56344 8.86295C3.6318 8.77232 3.70105 8.68228 3.77097 8.5929L3.85435 8.48691C3.92685 8.39539 4.00015 8.30461 4.07433 8.21442L4.15868 8.11262C4.22963 8.0275 4.30124 7.94297 4.37358 7.85903L4.47134 7.74642C4.54191 7.66579 4.61307 7.58574 4.68491 7.50628L4.79091 7.38992C4.8623 7.31209 4.93442 7.23491 5.00706 7.15824L5.11808 7.04211C5.19035 6.96713 5.26306 6.89274 5.33644 6.81895C5.37577 6.7794 5.41533 6.74 5.45497 6.70075C5.52996 6.62659 5.60547 6.55286 5.68165 6.47987L5.7825 6.38373C5.86508 6.30567 5.94848 6.22834 6.03246 6.1516C6.07275 6.11477 6.11342 6.07824 6.15409 6.04171C6.2293 5.97423 6.30481 5.90719 6.38098 5.84082C6.42194 5.80517 6.46305 5.76959 6.50431 5.73424C6.58217 5.66757 6.66056 5.60149 6.73939 5.536C6.77961 5.50263 6.81983 5.46934 6.86035 5.43626C6.94131 5.37002 7.02294 5.30461 7.105 5.23963C7.14545 5.20765 7.18582 5.17561 7.22648 5.14393C7.30958 5.07925 7.39335 5.01544 7.47747 4.95201C7.52367 4.91725 7.56993 4.8824 7.61642 4.848C7.69863 4.78714 7.78136 4.72709 7.86453 4.66747C7.91404 4.63197 7.96369 4.59669 8.01356 4.56162C8.09364 4.50533 8.17431 4.4496 8.25527 4.39448C8.30729 4.35905 8.35936 4.32391 8.41175 4.289C8.49676 4.23233 8.58207 4.1761 8.66796 4.12068C8.71446 4.09069 8.76108 4.06099 8.80786 4.03137C8.90106 3.97234 8.99469 3.91384 9.08899 3.85628C9.12921 3.83173 9.16973 3.80747 9.2101 3.78321C9.3052 3.72611 9.40075 3.66973 9.49681 3.61416L9.61196 3.54815C9.7095 3.49273 9.80748 3.43804 9.90597 3.38417L10.0256 3.31918C10.1259 3.26523 10.2269 3.21217 10.3284 3.15983C10.3657 3.14057 10.4029 3.12123 10.4403 3.10227C10.5476 3.04774 10.6556 2.99444 10.7641 2.94182L10.8591 2.89566C10.9739 2.8406 11.0895 2.78694 11.2056 2.73417L11.3026 2.69021C11.4229 2.63633 11.5437 2.58362 11.6651 2.53202L11.7525 2.49528C11.8758 2.4436 11.9998 2.39289 12.1244 2.34363L12.2055 2.31203C12.3282 2.26418 12.4514 2.21736 12.5752 2.17186L12.6544 2.14319C12.7784 2.09821 12.9029 2.05432 13.0282 2.01177L13.1079 1.98494C13.2346 1.94253 13.3619 1.90129 13.4898 1.86131L13.5657 1.83763C13.6951 1.79779 13.825 1.75928 13.9555 1.72194L14.0278 1.70128C14.1621 1.66335 14.2971 1.62697 14.4327 1.59191L14.4938 1.57603C14.6378 1.53921 14.7825 1.504 14.9277 1.47041L14.9587 1.46313C15.1139 1.42741 15.2698 1.39359 15.4265 1.36155L15.4441 1.35802C15.597 1.32685 15.7505 1.2976 15.9046 1.26996L15.9452 1.2629C16.0931 1.23674 16.2417 1.21219 16.3907 1.18925L16.4384 1.18212C16.5853 1.15992 16.7327 1.13934 16.8806 1.12038L16.9328 1.11384C17.0801 1.09539 17.2279 1.07855 17.3763 1.06327L17.4279 1.05805C17.5782 1.04305 17.7289 1.02967 17.8802 1.01799L17.9245 1.01453C18.0797 1.00292 18.2352 0.993142 18.3913 0.985057L18.4231 0.983367C18.5852 0.975282 18.7477 0.969033 18.9108 0.964844L18.9243 0.964403C19.0932 0.960213 19.2626 0.958008 19.4325 0.958008C19.6025 0.958008 19.7718 0.960065 19.9408 0.964403L19.9541 0.964844C20.1172 0.969033 20.2799 0.975208 20.4422 0.983367L20.4734 0.985057C20.6297 0.993142 20.7854 1.00292 20.9407 1.01453L20.9847 1.01799C21.1361 1.02967 21.287 1.04298 21.4374 1.05805L21.4886 1.06319C21.6369 1.07841 21.7849 1.09531 21.9324 1.11384L21.9845 1.12038C22.1324 1.13927 22.2798 1.15992 22.4267 1.18212L22.4745 1.18925C22.6239 1.21226 22.773 1.23696 22.9215 1.2632L22.9598 1.26981C23.1148 1.29752 23.2692 1.32707 23.423 1.35839L23.4378 1.36133C23.5951 1.39345 23.7516 1.42748 23.9074 1.46335L23.9357 1.47004C24.0816 1.50378 24.2266 1.53913 24.3713 1.57603L24.4324 1.59191C24.5679 1.62697 24.7029 1.66343 24.8374 1.70128L24.9096 1.72194C25.0404 1.75942 25.1708 1.79801 25.3005 1.838L25.3748 1.86108C25.5034 1.90129 25.6317 1.94281 25.7591 1.98559L25.8353 2.01117C25.9614 2.05411 26.087 2.09828 26.212 2.14363L26.2897 2.17179C26.4146 2.21757 26.5388 2.26484 26.6625 2.31313L26.7391 2.34298C26.8655 2.39289 26.9912 2.44426 27.1163 2.49674L27.1955 2.53004C27.3187 2.5823 27.4412 2.63575 27.563 2.69043L27.6581 2.73357C27.7753 2.78687 27.892 2.84104 28.0079 2.89654L28.0977 2.94013C28.2074 2.99334 28.3165 3.0473 28.4251 3.10242L28.5348 3.1588C28.6369 3.2115 28.7387 3.26501 28.8399 3.31941L28.9571 3.38306C29.0563 3.43731 29.1551 3.49229 29.2531 3.54815L29.3683 3.61416C29.4644 3.66973 29.56 3.72611 29.655 3.78321C29.6954 3.80747 29.7359 3.83173 29.7761 3.85628C29.8709 3.9142 29.9651 3.97301 30.0588 4.03239C30.1028 4.06026 30.1467 4.08812 30.1904 4.11627C30.2786 4.17316 30.3662 4.23078 30.4534 4.289C30.505 4.32347 30.5565 4.3581 30.6077 4.39301C30.6901 4.44909 30.7722 4.50584 30.8536 4.5631C30.9027 4.59765 30.9518 4.63249 31.0006 4.66747C31.0837 4.72709 31.1665 4.78714 31.2487 4.848C31.2943 4.88174 31.3398 4.91585 31.3852 4.95002C31.4709 5.01471 31.5564 5.07983 31.6411 5.14584C31.6806 5.17664 31.7198 5.20765 31.759 5.23875C31.8414 5.30402 31.9235 5.36974 32.0048 5.43626L32.1257 5.536C32.2046 5.60149 32.283 5.66757 32.3608 5.73424C32.402 5.76959 32.4432 5.80517 32.4841 5.84082C32.5602 5.90728 32.6359 5.97423 32.711 6.04171C32.7517 6.07817 32.7923 6.11477 32.8326 6.1516C32.9166 6.22826 33 6.30559 33.0826 6.38373L33.1834 6.47987C33.2602 6.55345 33.3363 6.62761 33.4118 6.70236C33.4509 6.7411 33.49 6.77991 33.5287 6.81895C33.6021 6.89274 33.6748 6.96713 33.747 7.04211C33.7841 7.08069 33.8212 7.11936 33.8581 7.15824C33.9307 7.23491 34.0029 7.31209 34.0742 7.38992L34.1802 7.50628C34.2529 7.5867 34.3249 7.6677 34.3963 7.74929L34.4903 7.85756C34.5633 7.94217 34.6356 8.02743 34.7071 8.11336L34.7882 8.21111C34.8632 8.30248 34.9374 8.39458 35.011 8.48719L35.0915 8.58951C35.1647 8.68301 35.2372 8.77717 35.3086 8.87207L35.3816 8.96968C35.4503 9.062 35.5182 9.15491 35.5854 9.24848L35.6606 9.35396C35.727 9.44797 35.7927 9.54243 35.8576 9.63754L35.9302 9.74485C35.9951 9.8413 36.0591 9.93839 36.1223 10.036L36.1879 10.1379C36.253 10.24 36.3174 10.3427 36.3807 10.446L36.4356 10.5361C36.5002 10.6426 36.5636 10.7497 36.6262 10.8575L36.6824 10.9552C36.7448 11.064 36.8062 11.1734 36.8664 11.2836L36.9164 11.3757C36.9757 11.4854 37.0343 11.5958 37.0915 11.7067L37.1395 11.8004C37.1952 11.9097 37.2499 12.0197 37.3036 12.1301L37.351 12.2284C37.4048 12.3405 37.4575 12.4531 37.5092 12.5663L37.5491 12.654C37.6019 12.7713 37.6537 12.8894 37.7043 13.008L37.7392 13.0899C37.7908 13.2122 37.841 13.335 37.8901 13.4585L37.9247 13.5456C37.9732 13.6693 38.0206 13.7935 38.0667 13.9184L38.096 13.9984C38.1422 14.1253 38.1873 14.2527 38.231 14.3808L38.2578 14.4603C38.2993 14.5842 38.3399 14.7086 38.3792 14.8336L38.4081 14.9263C38.44 15.0297 38.4706 15.1337 38.5009 15.2377C38.7313 16.1085 38.2809 17.0289 37.4371 17.3614C33.1424 19.0542 26.6714 20.1319 19.4325 20.1319C12.1939 20.1319 5.72268 19.0542 1.428 17.3614C0.584192 17.0289 0.133853 16.1085 0.364216 15.2377Z" fill="white"/>
<path opacity="0.2" d="M36.0796 23.6812C34.6956 31.6041 27.7695 37.6278 19.4325 37.6278C11.0956 37.6278 4.16942 31.6041 2.78548 23.6812C7.0294 22.2735 12.9202 21.4013 19.4325 21.4013C25.945 21.4013 31.8356 22.2735 36.0796 23.6812ZM2.78555 17.8514C4.16949 9.92839 11.0956 3.90479 19.4325 3.90479C27.7695 3.90479 34.6956 9.92839 36.0796 17.8514C31.8356 19.2591 25.945 20.1314 19.4325 20.1314C12.9202 20.1314 7.02947 19.2591 2.78555 17.8514Z" fill="white"/>
<path opacity="0.2" d="M33.2192 22.8731C32.2014 29.5577 26.4166 34.6803 19.4325 34.6803C12.4487 34.6803 6.66383 29.5577 5.64601 22.8731C9.51334 21.9474 14.2783 21.4008 19.4325 21.4008C24.587 21.4008 29.3518 21.9474 33.2192 22.8731ZM5.64608 18.6587C6.6639 11.9739 12.4487 6.85156 19.4325 6.85156C26.4166 6.85156 32.2013 11.9739 33.2191 18.6587C29.3518 19.5845 24.587 20.131 19.4325 20.131C14.2783 20.131 9.51342 19.5845 5.64608 18.6587Z" fill="white"/>
<path opacity="0.3" d="M30.3195 22.2815C29.5803 27.6217 24.9881 31.7346 19.4325 31.7346C13.8769 31.7346 9.28474 27.6217 8.54547 22.2815C11.7978 21.7201 15.5019 21.4024 19.4325 21.4024C23.3631 21.4024 27.0671 21.7201 30.3195 22.2815ZM8.54547 19.2533C9.28474 13.913 13.8769 9.80029 19.4325 9.80029C24.9881 9.80029 29.5803 13.913 30.3195 19.2533C27.0671 19.8148 23.3631 20.1325 19.4325 20.1325C15.5019 20.1325 11.7978 19.8148 8.54547 19.2533Z" fill="white"/>
<path d="M27.3963 21.8578C26.8629 25.7711 23.5011 28.7871 19.4326 28.7871C15.3643 28.7871 12.0025 25.7711 11.469 21.8578C13.955 21.563 16.6364 21.402 19.4326 21.402C22.2289 21.402 24.9104 21.563 27.3963 21.8578ZM11.469 19.6763C12.0025 15.763 15.3644 12.7471 19.4326 12.7471C23.501 12.7471 26.8629 15.763 27.3963 19.6763C24.9104 19.9712 22.2289 20.1322 19.4326 20.1322C16.6364 20.1322 13.955 19.9712 11.469 19.6763Z" fill="white"/>
</g>
<defs>
<clipPath id="clip0_1225_6218">
<rect width="149" height="40" fill="white" transform="translate(0 0.833984)"/>
</clipPath>
</defs>
</svg>
